<svg id="Layer_1" enable-background="new 0 0 512.002 512.002" height="512" viewBox="0 0 512.002 512.002" width="512" xmlns="http://www.w3.org/2000/svg"><g><path d="m495.594 416.408-134.086-134.095c14.685-27.49 22.492-58.333 22.492-90.312 0-50.518-19.461-98.217-54.8-134.31-35.283-36.036-82.45-56.505-132.808-57.636-1.46-.033-2.92-.054-4.392-.054-105.869 0-192 86.131-192 192s86.131 192 192 192c1.459 0 2.93-.021 4.377-.054 30.456-.68 59.739-8.444 85.936-22.436l134.085 134.075c10.57 10.584 24.634 16.414 39.601 16.414s29.031-5.83 39.589-16.403c10.584-10.577 16.413-24.639 16.413-39.597s-5.827-29.019-16.407-39.592zm-299.932-64.453c-1.211.027-2.441.046-3.662.046-88.224 0-160-71.776-160-160s71.776-160 160-160c1.229 0 2.449.019 3.671.046 86.2 1.935 156.329 73.69 156.329 159.954 0 86.274-70.133 158.029-156.338 159.954z"/><path d="m192 320.001c-70.58 0-128-57.42-128-128s57.42-128 128-128 128 57.42 128 128-57.42 128-128 128z"/></g></svg>